<?xml version="1.0" encoding="utf-8"?>
<!-- Generator: Adobe Illustrator 26.0.2, SVG Export Plug-In . SVG Version: 6.00 Build 0)  -->
<svg version="1.1" id="Layer_1" xmlns="http://www.w3.org/2000/svg" xmlns:xlink="http://www.w3.org/1999/xlink" x="0px" y="0px"
	 viewBox="0 0 512 512" style="enable-background:new 0 0 512 512;" xml:space="preserve">
<style type="text/css">
	.st0{fill:#34E8CD;}
	.st1{enable-background:new    ;}
</style>
<path id="사각형_156" class="st0" d="M171.65,77.8h55.1c15.21,0,27.55,12.33,27.55,27.55v56.93c0,15.21-12.33,27.55-27.55,27.55
	h-55.1c-15.21,0-27.55-12.33-27.55-27.55v-56.93C144.1,90.14,156.43,77.8,171.65,77.8z"/>
<path id="사각형_155" class="st0" d="M296.53,77.8h56.93c15.21,0,27.55,12.33,27.55,27.55v56.93c0,15.21-12.33,27.55-27.55,27.55
	h-56.93c-15.21,0-27.55-12.33-27.55-27.55v-56.93C268.99,90.14,281.32,77.8,296.53,77.8z"/>
<path id="사각형_154" class="st0" d="M296.53,204.52h56.93c15.21,0,27.55,12.33,27.55,27.55V289c0,15.21-12.33,27.55-27.55,27.55
	h-56.93c-15.21,0-27.55-12.33-27.55-27.55v-56.93C268.99,216.86,281.32,204.52,296.53,204.52z"/>
<path id="사각형_157" class="st0" d="M171.65,204.52h55.1c15.21,0,27.55,12.33,27.55,27.55V289c0,15.21-12.33,27.55-27.55,27.55
	h-55.1c-15.21,0-27.55-12.33-27.55-27.55v-56.93C144.1,216.86,156.43,204.52,171.65,204.52z"/>
<g class="st1">
	<path class="st0" d="M166.07,381.09l0.74,6.99c-4.01,0.77-8.42,1.29-12.8,1.65v21.95h-8.83v-21.48c-4.49,0.15-8.72,0.15-12.14,0.15
		l-1.03-7.65C141.02,382.78,155.48,382.71,166.07,381.09z M164.67,366.53c-0.04,7.47-6.36,12.65-14.86,12.65
		c-8.72,0-15.04-5.18-15-12.65c-0.04-7.46,6.29-12.72,15-12.72C158.31,353.81,164.63,359.06,164.67,366.53z M149.81,372.27
		c3.86-0.04,6.51-2.17,6.55-5.74c-0.04-3.57-2.68-5.81-6.55-5.81c-4.04,0-6.69,2.24-6.69,5.81
		C143.12,370.1,145.77,372.23,149.81,372.27z M158.79,393.08h10.66v-41.92h8.83v62.74h-8.83v-13.68h-10.66V393.08z M182.98,350.05
		h8.83v66.93h-8.83V350.05z"/>
	<path class="st0" d="M205.84,425.74h-7.8l3.68-20.96h10.44L205.84,425.74z"/>
	<path class="st0" d="M271.55,367.34c-0.04,8.86-7.69,15.19-17.87,15.22c-10.33-0.04-18.02-6.36-18.02-15.22
		c0-8.94,7.69-15.33,18.02-15.3C263.87,352,271.51,358.4,271.55,367.34z M253.68,374.99c5.07-0.04,8.79-2.87,8.83-7.65
		c-0.04-4.82-3.75-7.65-8.83-7.65c-5.15,0-8.97,2.83-8.9,7.65C244.71,372.12,248.49,374.95,253.68,374.99z M245.74,386.39h44.94
		v18.17h-35.6v4.34h37.44v7.36h-46.63v-18.53h35.45v-4.12h-35.6V386.39z M281.26,350.05h9.41v33.54h-9.41V350.05z"/>
	<path class="st0" d="M332,367.71h-32.36v-7.43h11.62v-8.38h9.27v8.38H332V367.71z M315.96,370.72c8.57,0.04,14.67,6.58,14.71,15.89
		c-0.04,9.34-6.14,15.96-14.71,15.96c-8.53,0-14.78-6.62-14.78-15.96C301.18,377.3,307.43,370.76,315.96,370.72z M315.96,394.62
		c3.75,0,6.44-2.91,6.47-8.02c-0.04-5.04-2.72-8.09-6.47-8.09c-3.9,0-6.54,3.05-6.54,8.09
		C309.42,391.72,312.06,394.62,315.96,394.62z M334.5,351.38h8.75v25.89h5.44v-27.21h8.9v66.93h-8.9v-32.21h-5.44v29.35h-8.75
		V351.38z"/>
	<path class="st0" d="M383.39,378.74c3.16-2.06,5.63-4.34,5.59-7.72c0.04-3.68-2.83-6.07-6.4-6.1c-3.42,0.04-6.62,2.32-6.77,6.62
		h-10.44c0.18-10.33,7.87-15.3,17.28-15.3c10.26,0,17.5,5.33,17.5,14.42c0,6.07-3.13,9.89-7.94,12.8c-4.16,2.46-5.99,4.85-6.03,10
		v0.81h-9.71v-0.81C376.52,384.29,378.98,381.5,383.39,378.74z M381.55,398.6c3.27-0.04,6.1,2.72,6.1,6.1c0,3.42-2.83,6.18-6.1,6.18
		c-3.46,0-6.25-2.76-6.18-6.18C375.3,401.32,378.1,398.56,381.55,398.6z"/>
</g>
</svg>
